<?xml version="1.0" encoding="utf-8"?>
<!-- Generator: Adobe Illustrator 22.0.1, SVG Export Plug-In . SVG Version: 6.00 Build 0)  -->
<svg version="1.1" id="Layer_1" xmlns="http://www.w3.org/2000/svg" xmlns:xlink="http://www.w3.org/1999/xlink" x="0px" y="0px"
	 viewBox="0 0 1224 792" style="enable-background:new 0 0 1224 792;" xml:space="preserve">
<style type="text/css">
	.st0{opacity:0.8;}
	.st1{fill:none;stroke:#00AEEF;stroke-width:4;stroke-miterlimit:10;}
	.st2{fill:none;stroke:#00AEEF;stroke-width:5;stroke-miterlimit:10;}
	.st3{fill:none;stroke:#00AEEF;stroke-width:3;stroke-miterlimit:10;}
	.st4{fill:none;stroke:#00AEEF;stroke-width:2;stroke-miterlimit:10;}
	.st5{fill:none;stroke:#00AEEF;stroke-miterlimit:10;}
	.st6{fill:none;stroke:#00AEEF;stroke-width:0.75;stroke-miterlimit:10;}
	.st7{fill:none;stroke:#00AEEF;stroke-width:0.5;stroke-miterlimit:10;}
	.st8{fill:none;stroke:#00AEEF;stroke-width:0.25;stroke-miterlimit:10;}
	.st9{fill:none;stroke:#00AEEF;stroke-width:8;stroke-miterlimit:10;}
	.st10{fill:none;stroke:#00AEEF;stroke-width:7;stroke-miterlimit:10;}
	.st11{fill:none;stroke:#00AEEF;stroke-width:6;stroke-miterlimit:10;}
	.st12{fill:none;stroke:#BE1E2D;stroke-width:4;stroke-miterlimit:10;}
	.st13{fill:none;stroke:#BE1E2D;stroke-width:5;stroke-miterlimit:10;}
	.st14{fill:none;stroke:#BE1E2D;stroke-width:3;stroke-miterlimit:10;}
	.st15{fill:none;stroke:#BE1E2D;stroke-width:2;stroke-miterlimit:10;}
	.st16{fill:none;stroke:#BE1E2D;stroke-miterlimit:10;}
	.st17{fill:none;stroke:#BE1E2D;stroke-width:0.75;stroke-miterlimit:10;}
	.st18{fill:none;stroke:#BE1E2D;stroke-width:0.5;stroke-miterlimit:10;}
	.st19{fill:none;stroke:#BE1E2D;stroke-width:0.25;stroke-miterlimit:10;}
	.st20{fill:none;stroke:#BE1E2D;stroke-width:8;stroke-miterlimit:10;}
	.st21{fill:none;stroke:#BE1E2D;stroke-width:7;stroke-miterlimit:10;}
	.st22{fill:none;stroke:#BE1E2D;stroke-width:6;stroke-miterlimit:10;}
	.st23{opacity:0.8;fill:none;stroke:#00AEEF;stroke-width:5;stroke-miterlimit:10;}
	.st24{fill:#FFFFFF;}
	.st25{opacity:0.8;fill:none;stroke:#BE1E2D;stroke-width:4;stroke-miterlimit:10;}
</style>
<g class="st0">
	<path class="st1" d="M462.7,232.4c-1.8-1.9-3.9-3.6-5.2-5.7c-5.3-8.4-11.8-11-22.1-8.1c2.2,5.3,2.7,10.4-2.5,14.7
		c-1,0.8,0,4,0.2,6.9c-2.5-2.2-4.4-3.9-8.1-7.2c3,8.6-1.1,8.7-5.7,8.9c-5.1,0.2-10.2,1.6-15.3,1.5c-3.3-0.1-6.5-1.9-9.6-3.9
		c10.6-1.9,13.9-9,15.9-17.7c2.7-11.7,13.3-19.4,25-18.6c1.7,0.1,4.3,1.1,4.8,2.4c1.9,4.3,6.1,5,9.5,6.7c8.2,4,12.6,10.6,14.6,18.9
		C463.7,231.5,463.2,231.9,462.7,232.4z"/>
	<path class="st2" d="M497,214.8c0-3.3-1.4-8.3,0.3-9.6c3.3-2.7,8.2-4.8,12.4-4.7c4.7,0.1,9.4,3,14.1,4.6c1.9,0.7,3.9,1.8,5.8,1.7
		c4.4-0.2,8.1,1.3,8.7,5.6c0.6,4.5,1.1,9.9-5.9,11.2c-1.1,0.2-2.1,2.5-2.7,4c-1.3,2.8-2.3,5.7-3.4,8.6c-0.6-0.2-1.1-0.4-1.7-0.5
		c0-5.3,0-10.7,0-16.6c-2.8-0.2-5.2-0.4-7.7-0.6c0.4,7.3-2,9.8-9.4,11.5c-4.5,1-11-0.3-10.3,8.2c-0.5,0.2-1,0.4-1.6,0.6
		c-3.6-4-7.8-7.6-10.4-12c-2-3.4,0.2-6.2,4.5-7.1c2.9-0.6,5.6-2,8.5-3.1C497.8,215.9,497.4,215.4,497,214.8z"/>
	<path class="st3" d="M376.2,234.5c-3.6-2-7.1-4-10.7-6c6.7,4.4,3.8,8.2,0.7,13.4c-1.9,3.1-1.3,8.3-0.5,12.2c0.8,3.8,0.2,5-3.5,5.3
		c-11.6,1-23.1,2.2-34.7,3.1c-2.6,0.2-5.3-0.8-8-1.3c0.1-0.6,0.2-1.1,0.2-1.7c5.1-0.7,10.2-1.4,15.4-2.1c2.7-8.7,5.4-17.2,7.8-25.7
		c0.9-3.1,0.3-6.8,1.8-9.4c0.9-1.7,4.5-2.8,6.8-2.6c4.8,0.4,9.4,2.1,14.2,2.7C372.8,223.3,375,225.1,376.2,234.5z M356,243.2
		c-3.2,1.8-6.4,2.5-7.2,4.2c-0.9,2.1-0.8,6.4,0.6,7.5c1.6,1.3,5.2,0.3,8.4,0.3c-0.5-2.4-0.9-3.8-1.2-5.2
		C356.3,248.5,356.3,246.9,356,243.2z"/>
	<path class="st4" d="M281,288.6c2-9,3.6-16.5,5.4-25c-1.4-1-1.5-6.6-7.1-4.8c-0.2-2.3-1.3-5.4-0.3-6.7c5-6.2,14.7-5.4,19.3,1.3
		l7,2.2c2,1.7,4.9,3,5.7,5.1c0.8,2.2,0.2,5.5-0.9,7.8c-0.7,1.5-3.4,2.1-5.8,3.4c8.1,11.4-3.5,11.2-9.8,15.5
		c-0.9-3.1-1.8-5.9-2.5-8.4c-0.8,2.6-1.1,6.1-2.9,8.1C287.8,288.5,284.4,288.1,281,288.6z"/>
	<path class="st5" d="M222,284.1c6.5-2.7,12.9-3.8,19.7-0.2c4.9,2.6,10,4.9,15.1,7.2c7.1,3.3,7.7,8.6,2.1,14.2c-2.1,2-3,5.3-4.1,8.2
		c-0.7,1.9-0.6,4.2-1.4,6.2c-0.8,2.1-2.3,4-3.1,5.4c-3-1-5.6-1.9-8.5-2.9c4.4-2.8,8.4-5.4,12.4-8c-0.4-0.6-0.8-1.2-1.2-1.8
		c-3.6-0.2-7.9-2-9.3,4.7c-1-5.1-1.9-10.3-3.2-15.4c-0.9-3.7-2.6-7.3-3.5-11c-1.6-6.3-6.3-2.7-9.7-3.4c-1.9-0.4-3.8-0.8-5.7-1.3
		C221.8,285.5,221.9,284.8,222,284.1z"/>
	<path class="st6" d="M212.6,363.6c0.4-6.4,0.6-10.9,0.9-15.4c-9.8,9.8-9.8,9.8-14.3,3.5c6.1-3.7,6.2-9.6,6.9-16
		c1.3-10.6-9.3-5.6-11.9-10.5c4.8-3.7,9.8-3.1,16.1,1.8c4,3.1,8.4,5.7,12.2,9c1.3,1.1,2,3.9,1.6,5.6c-1.5,6.5-3.6,12.9-5.5,19.3
		C217,365.8,214.5,365.4,212.6,363.6z"/>
	<path class="st7" d="M178,404.1c2.5-4.3,4.2-7.2,5.9-10c-0.5-0.4-1-0.7-1.5-1.1c-2,1.4-3.9,2.8-7.8,5.5c0.2-3.6,0.4-5.7,0.4-7.8
		c0-1.4-0.5-2.7-0.4-4.1c0.3-3.7,0.1-7.7,1.5-11c1.3-2.9,4-5.8,6.8-7.3c9-4.9,14.6,5,22.6,4.9c-0.1,0.7-0.2,1.4-0.3,2.1
		c-2.2-0.3-4.5-0.1-6.5-0.9c-5.1-1.9-8.5,0.3-11.3,4.1c-0.7,1-1.2,3-0.7,3.8c4.3,6.7,4.8,13.2,0,19.8c-0.9,1.2-0.8,3.1-1.5,5.9
		C182.3,406.6,179.9,405.2,178,404.1z"/>
	<path class="st8" d="M168.2,422.2c2.8,2.4,6.2,5.3,9.5,8.2c-0.1,0.4-0.2,0.8-0.3,1.2c-2.7-0.5-5.4-0.9-8.7-1.5
		c0.2,2.6,0.4,5,0.6,7.5c-5,2.2-10.1,4.5-16.2,7.2c1.6-5,2.7-8.3,3.7-11.3c-0.6-0.7-0.8-1.1-1.1-1.4c-2.5-1.9-5-3.7-7.5-5.5
		c2.2-2.8,4.2-5.7,6.6-8.4c0.9-1,2.4-1.9,3.7-2.2c2.8-0.7,5.8-1.6,8.4-1C167.8,415.1,167.8,419.5,168.2,422.2z"/>
	<g>
		<path class="st9" d="M765.7,292.3c3.1,0,6.3-0.2,9.4,0c7,0.5,10.4,4.4,13.2,13.9c1.3,4.3,4,8.2,5.2,12.5c0.7,2.5,0.7,6.1-0.6,8
			c-3.9,5.7-8.7,11-13.2,16.3c-1.4,1.6-3.2,2.9-6.1,5.4c0.7-9.8,9-15.3,6.4-22.8c1.3-1.6,2.2-2.7,3-3.8c-2.2-1.2-4.7-3.8-6.6-3.4
			c-7.3,1.6-4.1,7.1-2.9,13.5c-4.5-4.4-7.7-7.6-11-10.8c-0.7,0.5-1.3,1-2,1.5c0.8,2.4,1.7,4.9,2.8,8.2c-1.7,0.6-3.6,1.4-5.6,2.1
			c-3.1-8.3-2-10.7,5.5-14.2c1.1-0.5,2.9-1.7,2.7-2.1c-1.9-6.7,3.8-5.7,6.8-6.1c5.8-0.8,6.3-5,6.6-9.2c0.3-4.9-4-3.8-6.8-4.7
			c-2.7-0.8-5.3-1.8-7.9-2.8C765.1,293.5,765.4,292.9,765.7,292.3z"/>
		<path class="st9" d="M741.7,333.6c3-3.4-5.9-9.1,2.4-10.8c4-0.8,9.8,5,10.4,9.8c-3.9,1.7-3.9,1.7-9.4-8.1
			c0.7,4.4,1.2,7.1,1.8,10.6c-3.9-1.3-8.4,3.8-10.7-2.8C738,332.8,739.9,333.2,741.7,333.6z"/>
		<path class="st9" d="M733.9,336.9c-6.6,1.7-9.1-1.8-10.5-6.1c-0.2-0.8,2.3-3.5,3.6-3.5C733.5,327.1,731.9,332.9,733.9,336.9z"/>
	</g>
	<g>
		<path class="st10" d="M672.2,262.5c0.1-0.9,0.2-1.7,0.3-2.6c-3.3,0.4-6.7,0.9-10.6,1.4c-0.1-1.4-0.2-3.4-0.3-5.2
			c4.3-2.2,12.5,6.2,11.9-5.5c4.6-0.9,9.1-1.9,13.5-2.7c9.9-1.9,17.4,2.9,23.5,9.6c5.4,5.9,1.8,18.5-5.6,21.8
			c-4.4,1.9-8.9,3.5-13.4,5.2c-0.4-0.7-0.9-1.4-1.3-2.1c3.2-2.2,6.4-4.5,9.6-6.7c-2.7-4.9-11.5-4.7-15-0.2c-1.9,2.5-3.8,5.1-6.3,7
			c-5.9,4.5-6,4.3-6.3,12.1c-1.6-0.3-3-0.5-4.9-0.9c1.1-2.2,2.1-4,3-5.9c-3.3-1.4-6.3-2.7-9.3-3.9c0.3-0.7,0.5-1.4,0.8-2.2
			c3,0.4,5.9,0.8,8.9,1.1c0.1-0.4,0.2-0.8,0.3-1.1c-2.8-0.7-5.6-1.5-8.4-2.2c0.9-5,3.4-5.8,7.8-4.7c1.8,0.5,4.7-0.2,6.1-1.5
			c2.9-2.6,5.2-6,7.4-8.7c-3.2-0.6-7.5-1.5-11.8-2.3L672.2,262.5z"/>
		<path class="st10" d="M674.8,244.4c-5.1,0.5-8.9,0.9-14.5,1.5c1.2-3.3,1.5-6.8,3.4-8.8c1.4-1.5,6-2.1,7.2-1
			C673.1,238,673.6,241.6,674.8,244.4z"/>
		<path class="st10" d="M663.5,294.9c2.9,1.6,7.1,2.5,8.4,5c2,3.9-3.2,3.9-5.2,5.6c-1.8-2.7-3.6-5.4-5.4-8.1
			C662,296.5,662.8,295.7,663.5,294.9z"/>
		<path class="st10" d="M672,262.3c0.2,3.3,0.3,6.7,0.5,10.6c-4.2-0.8-8.9,0.6-9.7-5.9c1.6-0.2,3-0.3,4.6-0.5c-0.4-1-0.7-2-1.7-4.8
			c2.4,2,3.5,2.9,4.7,3.9c0.6-1,1.1-2,1.7-3.1C672.2,262.5,672,262.3,672,262.3z"/>
	</g>
	<g>
		<path class="st11" d="M606.5,236.2c-0.2,11.3-9.5,9.8-16.4,12.1c0,1.6,0,3.1,0,6.5c-2.1-2.8-3.3-4.2-4.6-5.9
			c-1,1.1-1.9,2.2-3.1,3.5c-3.2-4-7.3-7.6-3.3-13.5c2.3,0.9,4.4,1.7,6.6,2.5c0.1-0.3,0.1-0.7,0.2-1c-2.7-2.9-5.3-5.7-8.3-8.9
			c-0.4,3.4-0.4,5.6-1,7.6c-0.2,0.7-1.8,1-2.7,1.4c-0.5-1.1-1.3-2.1-1.5-3.2c-0.4-2.7-0.4-5.4-1.9-8.3c-0.7,2.1-1.4,4.1-2.4,7.2
			c-1.1-2.2-2.9-4.6-2.5-5.1c2-2.5,4.3-5.7,7-6.3c4.5-1,9.4-0.3,15.3-0.3c-0.2,0.3,0.5-0.7,1.1-1.8c5.7-10.3,12.2-12.6,22.4-6.6
			c3.5,2.1,5.7,6.3,9,9c2.1,1.8,5.1,2.7,7.5,4.3c2.4,1.6,1.7,9.7-1.1,12.1c-3.3,2.8-7.3,2.8-9.4-0.7
			C614.8,236.8,611.5,236,606.5,236.2z"/>
		<path class="st11" d="M593.4,253.7c1.4,3.9,2.9,7.7,4.3,11.6c-0.6,0.5-1.2,1-1.8,1.6c-2-1.5-5.1-2.7-5.8-4.7
			c-0.9-2.3,0.3-5.4,0.5-8.2C591.6,253.9,592.5,253.8,593.4,253.7z"/>
		<path class="st11" d="M557.3,226.1c-0.2-3.8-0.4-7.6-0.7-12.6c7.8,4.2,2.1,8.7,3.6,12.4C559.2,225.9,558.2,226,557.3,226.1z"/>
	</g>
	<path class="st8" d="M526.9,482.1c-2-3-3.9-4.6-4-6.3c-0.1-1.4,2-3,3.1-4.5c1.5,1.5,3.7,2.7,4.2,4.5
		C530.6,477,528.7,478.9,526.9,482.1z"/>
	<path class="st8" d="M544.6,481c-0.6-1.1-2.2-3.8-4.2-7.1c7.1,0,7.1,0,5.6,7.5c-0.1,0.4,0,0.8,0,1.2
		C545.9,482.5,545.8,482.5,544.6,481z"/>
</g>
<g class="st0">
	<path class="st12" d="M468.8,233c-1.8-1.9-3.9-3.6-5.3-5.8c-5.4-8.5-12.1-11.2-22.5-8.3c2.3,5.4,2.8,10.6-2.5,15
		c-1,0.8,0,4.1,0.2,7c-2.5-2.3-4.5-4-8.2-7.3c3,8.8-1.1,8.9-5.8,9.1c-5.2,0.2-10.4,1.6-15.6,1.5c-3.3-0.1-6.6-1.9-9.8-4
		c10.8-2,14.2-9.1,16.2-18.1c2.7-11.9,13.5-19.7,25.5-19c1.7,0.1,4.3,1.1,4.9,2.4c2,4.4,6.2,5.1,9.7,6.8
		c8.4,4.1,12.8,10.8,14.9,19.3C469.9,232.1,469.4,232.6,468.8,233z"/>
	<path class="st13" d="M503.8,215.1c0-3.4-1.4-8.4,0.3-9.8c3.3-2.8,8.4-4.9,12.7-4.8c4.8,0.1,9.5,3,14.3,4.7c2,0.7,4,1.8,5.9,1.7
		c4.5-0.2,8.2,1.3,8.8,5.7c0.7,4.6,1.2,10.1-6,11.4c-1.2,0.2-2.1,2.6-2.8,4.1c-1.3,2.9-2.4,5.9-3.5,8.8c-0.6-0.2-1.1-0.4-1.7-0.5
		c0-5.4,0-10.9,0-16.9c-2.8-0.2-5.3-0.4-7.8-0.6c0.4,7.4-2,10-9.6,11.7c-4.6,1-11.2-0.3-10.5,8.4c-0.5,0.2-1.1,0.4-1.6,0.6
		c-3.6-4-7.9-7.7-10.6-12.3c-2.1-3.5,0.2-6.4,4.5-7.3c3-0.6,5.8-2.1,8.6-3.1C504.6,216.2,504.2,215.7,503.8,215.1z"/>
	<path class="st14" d="M380.6,235.1c-3.6-2.1-7.3-4.1-10.9-6.2c6.8,4.5,3.9,8.4,0.8,13.7c-1.9,3.2-1.3,8.5-0.5,12.5
		c0.8,3.9,0.2,5.1-3.5,5.4c-11.8,1-23.6,2.3-35.4,3.1c-2.7,0.2-5.4-0.9-8.1-1.3c0.1-0.6,0.2-1.1,0.2-1.7c5.2-0.7,10.4-1.4,15.7-2.1
		c2.7-8.9,5.5-17.5,8-26.2c0.9-3.1,0.3-6.9,1.8-9.6c0.9-1.7,4.6-2.8,6.9-2.6c4.9,0.4,9.6,2.1,14.5,2.7
		C377.2,223.8,379.5,225.6,380.6,235.1z M360,244.1c-3.3,1.8-6.5,2.5-7.3,4.3c-1,2.2-0.8,6.5,0.6,7.7c1.7,1.4,5.3,0.3,8.5,0.3
		c-0.6-2.4-1-3.8-1.2-5.3C360.4,249.4,360.3,247.8,360,244.1z"/>
	<path class="st15" d="M283.6,290.3c2-9.2,3.6-16.8,5.5-25.5c-1.4-1.1-1.5-6.7-7.2-4.9c-0.2-2.3-1.4-5.5-0.3-6.9
		c5.1-6.3,14.9-5.5,19.6,1.3l7.1,2.2c2,1.7,5,3,5.8,5.2c0.8,2.3,0.2,5.6-1,8c-0.8,1.6-3.5,2.1-5.9,3.5c8.3,11.6-3.5,11.4-9.9,15.8
		c-0.9-3.2-1.8-6-2.5-8.5c-0.9,2.7-1.1,6.2-3,8.3C290.5,290.2,287,289.8,283.6,290.3z"/>
	<path class="st16" d="M223.5,285.8c6.6-2.8,13.2-3.9,20.1-0.2c5,2.7,10.2,5,15.4,7.4c7.3,3.3,7.9,8.8,2.1,14.5
		c-2.1,2.1-3.1,5.4-4.2,8.4c-0.8,2-0.6,4.3-1.4,6.3c-0.8,2.2-2.3,4.1-3.2,5.5c-3.1-1-5.7-2-8.6-2.9c4.4-2.9,8.6-5.5,12.7-8.2
		c-0.4-0.6-0.8-1.3-1.2-1.9c-3.6-0.3-8-2.1-9.5,4.8c-1.1-5.2-1.9-10.5-3.2-15.7c-0.9-3.8-2.6-7.4-3.6-11.2c-1.6-6.5-6.5-2.7-9.9-3.5
		c-2-0.4-3.9-0.9-5.8-1.3C223.3,287.1,223.4,286.4,223.5,285.8z"/>
	<path class="st17" d="M213.8,366.7c0.4-6.5,0.6-11.1,0.9-15.7c-10,10-10,10-14.6,3.6c6.2-3.8,6.3-9.8,7.1-16.3
		c1.3-10.8-9.5-5.7-12.1-10.7c4.9-3.8,10-3.2,16.4,1.8c4,3.2,8.5,5.8,12.4,9.1c1.3,1.1,2.1,4,1.7,5.7c-1.6,6.6-3.7,13.1-5.6,19.7
		C218.4,369.1,215.8,368.7,213.8,366.7z"/>
	<path class="st18" d="M178.6,408.1c2.6-4.4,4.3-7.3,6-10.2c-0.5-0.4-1-0.7-1.6-1.1c-2,1.4-4,2.8-7.9,5.6c0.2-3.7,0.4-5.8,0.4-8
		c0-1.4-0.5-2.8-0.4-4.1c0.3-3.8,0.1-7.8,1.6-11.2c1.3-3,4.1-5.9,6.9-7.5c9.2-5,14.9,5.1,23.1,5c-0.1,0.7-0.2,1.4-0.3,2.2
		c-2.2-0.3-4.6-0.2-6.6-0.9c-5.2-1.9-8.7,0.3-11.5,4.2c-0.7,1-1.2,3.1-0.7,3.9c4.4,6.8,4.8,13.4,0,20.2c-0.9,1.2-0.8,3.1-1.5,6
		C182.9,410.6,180.5,409.2,178.6,408.1z"/>
	<path class="st19" d="M168.6,426.5c2.9,2.5,6.3,5.4,9.7,8.4c-0.1,0.4-0.2,0.8-0.4,1.2c-2.7-0.5-5.5-0.9-8.9-1.5
		c0.2,2.6,0.4,5,0.6,7.7c-5.1,2.3-10.3,4.6-16.5,7.4c1.7-5.1,2.7-8.4,3.7-11.5c-0.6-0.8-0.8-1.2-1.1-1.4c-2.5-1.9-5.1-3.8-7.6-5.6
		c2.2-2.9,4.3-5.8,6.7-8.6c0.9-1.1,2.4-1.9,3.8-2.3c2.8-0.7,5.9-1.6,8.6-1.1C168.1,419.3,168.1,423.8,168.6,426.5z"/>
	<g>
		<path class="st20" d="M777.7,294.1c3.2,0,6.4-0.2,9.6,0c7.2,0.5,10.6,4.5,13.5,14.2c1.3,4.4,4.1,8.4,5.3,12.8
			c0.7,2.5,0.7,6.2-0.7,8.2c-4,5.9-8.8,11.2-13.5,16.6c-1.4,1.7-3.3,2.9-6.2,5.5c0.7-10,9.2-15.6,6.5-23.2c1.3-1.6,2.2-2.8,3.1-3.9
			c-2.2-1.2-4.8-3.8-6.7-3.4c-7.5,1.7-4.2,7.3-3,13.8c-4.5-4.4-7.9-7.7-11.2-11c-0.7,0.5-1.4,1-2,1.6c0.9,2.5,1.7,5,2.9,8.4
			c-1.7,0.7-3.7,1.4-5.7,2.2c-3.1-8.4-2.1-10.9,5.7-14.5c1.1-0.5,2.9-1.7,2.8-2.1c-1.9-6.8,3.8-5.8,6.9-6.2c5.9-0.9,6.5-5.1,6.7-9.4
			c0.3-5-4.1-3.9-7-4.8c-2.7-0.8-5.4-1.9-8-2.8C777.1,295.3,777.4,294.7,777.7,294.1z"/>
		<path class="st20" d="M753.2,336.2c3.1-3.4-6-9.2,2.5-11c4-0.9,10,5.1,10.6,10c-4,1.7-4,1.7-9.6-8.2c0.7,4.5,1.2,7.3,1.8,10.8
			c-4-1.4-8.5,3.9-10.9-2.8C749.5,335.3,751.5,335.8,753.2,336.2z"/>
		<path class="st20" d="M745.3,339.6c-6.8,1.8-9.3-1.8-10.7-6.2c-0.3-0.8,2.3-3.5,3.6-3.6C744.9,329.5,743.3,335.5,745.3,339.6z"/>
	</g>
	<g>
		<path class="st21" d="M682.4,263.7c0.1-0.9,0.2-1.8,0.3-2.6c-3.4,0.4-6.8,0.9-10.8,1.4c-0.1-1.4-0.2-3.4-0.3-5.3
			c4.4-2.2,12.8,6.3,12.2-5.6c4.7-0.9,9.2-1.9,13.8-2.8c10.1-1.9,17.7,2.9,23.9,9.7c5.5,6,1.9,18.9-5.7,22.2
			c-4.5,2-9.1,3.5-13.7,5.3c-0.5-0.7-0.9-1.4-1.4-2.1c3.3-2.3,6.5-4.6,9.8-6.8c-2.8-5-11.8-4.8-15.3-0.2c-1.9,2.5-3.9,5.2-6.4,7.1
			c-6,4.6-6.1,4.4-6.4,12.3c-1.6-0.3-3.1-0.6-5-0.9c1.2-2.3,2.1-4.1,3.1-6c-3.4-1.4-6.4-2.7-9.5-4c0.3-0.7,0.5-1.5,0.8-2.2
			c3,0.4,6,0.8,9.1,1.2c0.1-0.4,0.2-0.8,0.3-1.2c-2.9-0.8-5.7-1.5-8.6-2.3c0.9-5.1,3.5-5.9,7.9-4.7c1.8,0.5,4.8-0.2,6.2-1.5
			c3-2.7,5.3-6.1,7.6-8.8c-3.3-0.6-7.6-1.5-12-2.3L682.4,263.7z"/>
		<path class="st21" d="M685,245.2c-5.2,0.5-9.1,0.9-14.7,1.5c1.2-3.4,1.6-6.9,3.5-9c1.5-1.5,6.1-2.2,7.4-1
			C683.3,238.7,683.8,242.4,685,245.2z"/>
		<path class="st21" d="M673.6,296.7c2.9,1.6,7.3,2.6,8.5,5.1c2,4-3.3,3.9-5.3,5.7c-1.8-2.7-3.7-5.5-5.5-8.2
			C672,298.4,672.8,297.5,673.6,296.7z"/>
		<path class="st21" d="M682.2,263.5c0.2,3.4,0.3,6.8,0.5,10.8c-4.3-0.8-9.1,0.7-9.9-6c1.7-0.2,3.1-0.4,4.7-0.5
			c-0.4-1.1-0.7-2.1-1.7-4.9c2.5,2,3.6,3,4.8,4c0.6-1,1.2-2.1,1.7-3.1C682.4,263.7,682.2,263.5,682.2,263.5z"/>
	</g>
	<g>
		<path class="st22" d="M615.4,236.9c-0.2,11.5-9.6,10-16.8,12.3c0,1.6,0,3.2,0,6.6c-2.2-2.8-3.3-4.3-4.7-6c-1,1.1-1.9,2.2-3.2,3.6
			c-3.3-4.1-7.4-7.8-3.4-13.7c2.4,0.9,4.5,1.7,6.7,2.6c0.1-0.3,0.1-0.7,0.2-1c-2.7-2.9-5.4-5.8-8.4-9.1c-0.4,3.5-0.4,5.7-1,7.7
			c-0.2,0.7-1.8,1-2.8,1.5c-0.5-1.1-1.3-2.1-1.5-3.3c-0.4-2.8-0.4-5.5-2-8.5c-0.7,2.1-1.4,4.2-2.5,7.4c-1.2-2.3-3-4.7-2.5-5.2
			c2-2.5,4.4-5.8,7.2-6.4c4.6-1.1,9.6-0.3,15.6-0.3c-0.2,0.3,0.6-0.7,1.2-1.8c5.8-10.5,12.5-12.8,22.8-6.7c3.6,2.1,5.9,6.4,9.1,9.2
			c2.2,1.9,5.2,2.8,7.6,4.4c2.4,1.6,1.7,9.9-1.1,12.3c-3.3,2.9-7.5,2.9-9.5-0.7C623.9,237.5,620.6,236.7,615.4,236.9z"/>
		<path class="st22" d="M602.1,254.8c1.5,3.9,3,7.9,4.4,11.8c-0.6,0.5-1.2,1.1-1.9,1.6c-2.1-1.5-5.2-2.7-6-4.7
			c-0.9-2.4,0.3-5.5,0.5-8.3C600.2,255,601.1,254.9,602.1,254.8z"/>
		<path class="st22" d="M565.2,226.6c-0.2-3.8-0.4-7.7-0.7-12.8c7.9,4.3,2.2,8.9,3.7,12.6C567.2,226.4,566.2,226.5,565.2,226.6z"/>
	</g>
	<path class="st19" d="M534.3,487.6c-2-3-4-4.7-4.1-6.4c-0.1-1.5,2-3,3.2-4.6c1.5,1.5,3.7,2.8,4.3,4.5
		C538,482.4,536.1,484.4,534.3,487.6z"/>
	<path class="st19" d="M552.3,486.4c-0.7-1.1-2.3-3.8-4.3-7.2c7.3,0,7.3,0,5.7,7.6c-0.1,0.4,0,0.8,0,1.3
		C553.6,488,553.5,488,552.3,486.4z"/>
</g>
<path class="st23" d="M43.6,460.1c0.4-0.2,0.7-0.6,1.1-0.6c13.4-3.2,26.9-6.4,40.3-9.7c3.3-0.8,6.4-2.2,9.7-2.9
	c2.4-0.5,5.5-1.5,7.3-0.5c5.2,2.7,10,1.3,15.3,0.7c6.6-0.8,13.3,0.1,20,0.2c6.5,0.2,13.1,0.4,19.6,0.5c11.5,0.2,23.1,0.4,34.6,0.4
	c12.9-0.1,25.7-0.6,38.3,3.3c0.4,0.1,0.9,0.2,1.3,0c11.2-4.7,22.9-0.9,34.3-1.6c10.1-0.6,20.2-0.9,30.2-1.3c0.4,0,0.9-0.1,1.3,0
	c10.7,2.6,21.4,5.4,32.2,7.7c7.7,1.6,15.7,2.2,23.5,3.8c11.6,2.5,22.8,2.3,34.4-0.5c4.6-1.1,9.9,1.3,14.7,1
	c5.2-0.4,10.5-1.9,15.5-3.5c4.6-1.5,9-3.7,13.4-5.7c6.8-3.1,13.4-7.1,20.5-9.3c17.2-5.4,34.5-10.3,52-14.8
	c10.4-2.7,21.2-4.4,31.9-5.8c6-0.8,12.2,0.1,18.3,0.1c1.9,0,3.9-0.2,5.7-0.9c8.2-3.1,16.4-6.1,24.4-9.8c4.5-2.1,8.4-5.3,13.3-0.9
	c2.5-5,5.7-8,11.8-5.8c1.9,0.7,4.4-0.2,7-0.4c0.5,0.9,1.1,2.2,1.3,2.7c2.7-1.4,5.2-2.9,7.8-4c3.2-1.4,6.6-2.5,9.8-3.8
	c5.9-2.3,11.9-4.4,17.5-7.3c4-2.1,7.3-5.5,11-8.1c1.2-0.8,2.8-1.5,4.2-1.4c5.8,0.6,11.1,0.3,15.5-4.5c1.2-1.4,3.7-1.7,5.7-2.3
	c3.4-0.9,7.3-0.6,8.6-5.2c0.1-0.5,3.5-0.7,4.9,0c4.2,1.8,7.4,2.5,11.2-1.5c1.9-2,6.7-3.4,9.2-2.4c7.6,3.1,13.8-0.5,20.5-2.3
	c1.5-0.4,3.2-0.9,4.6-0.5c2.8,0.9,4.9,1.6,5.5-2.5c0.1-0.5,3.7-0.7,5.6-0.7c2.7,0,5.3,0.4,8,0.6c1.3,0.1,2.6,0,3.9,0
	c-0.4,1.3-0.4,2.9-1.2,3.8c-7.5,8.9-15.3,17.6-22.6,26.6c-20.4,25.2-40.7,50.5-61,75.7c-6.9,8.6-7.1,9-16.7,3.7
	c-18.5-10.3-36.9-20.7-54.9-31.8c-6.2-3.8-12.2-2.5-18.4-2.3c-1.1,0-2.6,2.5-3,4.1c-2.2,7.3-3.8,14.8-6.3,22
	c-0.6,1.9-3.4,3.9-5.5,4.2c-5.2,0.8-10.6,1.1-15.8,0.8c-6.2-0.4-7.9,3.3-8.8,8.2c-0.8,4.6-1.6,9.1-2.5,14.5
	c-23.6-2.8-46.8-5.2-70-8.3c-30.7-4.1-61.3-1.8-92,0.2c-26.9,1.7-53.7,3.4-80.6,4.8c-29,1.5-58,2.7-87,3.8
	c-25.2,0.9-50.3,1.7-75.5,2.3c-7.4,0.2-14.8-0.6-22.2-0.6c-3.6,0-7.3,1.7-10.6,1c-7.8-1.4-15.4,0.5-23.2,0
	c-8.2-0.5-16.4-0.7-24.6-0.7c-8,0-16,0.4-24,0.6C43.6,482.2,43.6,471.2,43.6,460.1z M529.5,482c1.7-3.2,3.6-5.1,3.3-6.3
	c-0.5-1.7-2.7-3-4.2-4.5c-1.1,1.5-3.2,3-3.1,4.5C525.5,477.4,527.5,479,529.5,482z M547.1,480.9c1.2,1.5,1.3,1.6,1.4,1.6
	c0-0.4-0.1-0.8,0-1.2c1.5-7.5,1.5-7.5-5.6-7.5C544.9,477.1,546.5,479.8,547.1,480.9z"/>
<path class="st23" d="M1189.3,329c-6.3,1.6-13,2.8-9.9,11.9c-36.7-3.7-72.1,2.7-107.9,3.4c3.6-0.6,7.2-0.8,10.6-1.9
	c7.7-2.3,15.8-1.8,23.5-5.5c3.8-1.9,10.5-3.7,15.5,1.2c0.9,0.9,4.1,0.6,5.7-0.2c9.4-5.2,18.7-10.5,30-10.2c1.6,0.1,4-0.4,4.6-1.5
	c4.8-8.4,12.3-3.8,17.9-2.8c4.3,0.8,7,0.2,10-2.1C1189.3,323.9,1189.3,326.5,1189.3,329z"/>
<path class="st23" d="M1002.9,342.6c0.2,0.8,0.7,2.4,1.2,4c0.4-0.1,0.9-0.1,1-0.3c4.4-8,12.3-5,18.9-5.9c4.1-0.6,8.3-0.8,12.4-0.9
	c4.3-0.2,9-1.9,12.3,2.9c1.2,1.8,3,4.9,5.9,1.2c0.1-0.2,2.7,1.6,5.7,3.4c-5.9,0.9-10.2,1.2-14.2,2.3c-4.2,1.2-8.4,2.6-12,4.9
	c-11,7.1-21.9,14.5-32.6,22.1c-4.9,3.5-9.6,5.6-15.8,3.7c-2.2-0.7-5.1,1-7.5,1.5c-1.2-0.9-3-3.6-4.9-3.7c-7-0.2-14,0-21,0.8
	c-10.4,1.3-20.8,3.1-31.2,4.8c-4.3,0.7-8.5,1.8-12.8,2.3c-2.7,0.3-5.4-0.3-8.1-0.5c-0.5-0.1-1.4-0.8-1.5-0.6
	c-6.7,7.5-10.9-1-14.8-3.3c-9.2-5.4-17.5-12.6-26.1-19.1c-1.2-0.9-1.8-2.5-2.7-3.7c1.4-0.6,2.8-1.3,4.3-1.7
	c4.1-1.2,8.3-2.5,12.5-3.4c4-0.9,8.3-2,7.4,5.1c-0.2,1.4,2.9,3.2,3.9,4.2c3.8-3.4,6.4-7.3,9.8-8.4c4-1.2,8.7,0.2,14.1,0.6
	c-1.5,1.9-2,2.6-1.8,2.3c2.9,2.8,5.6,5.3,9.3,8.9c-0.8-2.8-1.1-3.9-1-3.6c2.7-2.5,4.7-4.8,7.1-6.5c2-1.4,4.4-2.1,6.6-3.1
	c0.3,2.1,0.6,4.2,1.1,7c2.5,0.5,3.7-11,8.3-2.1c3.3-3.6,5-9.1,11.7-3.3c2.6,2.3,8.6-1.6,9.7-7.5c9.4,1.3,18.5,2.6,27.7,3.9
	c0.1-0.4,0.5-2.1,0.9-3.9c0.3,0.5,0.6,1,1,1.5C992.6,346.5,997.4,344.7,1002.9,342.6z"/>
<path d="M596,253.6c1.4,3.9,2.9,7.7,4.3,11.6c-0.6,0.5-1.2,1-1.8,1.6c-2-1.5-5.1-2.7-5.8-4.7c-0.9-2.3,0.3-5.4,0.5-8.2
	C594.1,253.8,595,253.7,596,253.6z"/>
<path d="M559.8,226c-0.2-3.8-0.4-7.6-0.7-12.6c7.8,4.2,2.1,8.7,3.6,12.4C561.7,225.8,560.8,225.9,559.8,226z"/>
<path class="st24" d="M529.5,482c-2-3-3.9-4.6-4-6.3c-0.1-1.4,2-3,3.1-4.5c1.5,1.5,3.7,2.7,4.2,4.5
	C533.1,476.9,531.2,478.8,529.5,482z"/>
<path class="st24" d="M547.1,480.9c-0.6-1.1-2.2-3.8-4.2-7.1c7.1,0,7.1,0,5.6,7.5c-0.1,0.4,0,0.8,0,1.2
	C548.4,482.4,548.3,482.4,547.1,480.9z"/>
<path class="st24" d="M358.5,243.1c0.3,3.6,0.4,5.3,0.6,6.9c0.2,1.4,0.6,2.8,1.2,5.2c-3.2,0-6.7,1-8.4-0.3c-1.4-1.2-1.5-5.4-0.6-7.5
	C352.1,245.6,355.3,244.9,358.5,243.1z"/>
<g class="st0">
	<path class="st25" d="M53.8,462.7c0.4-0.2,0.7-0.6,1.1-0.6c13.4-3.2,26.9-6.4,40.3-9.7c3.3-0.8,6.4-2.2,9.7-2.9
		c2.4-0.5,5.5-1.5,7.3-0.5c5.2,2.7,10,1.3,15.3,0.7c6.6-0.8,13.3,0.1,20,0.2c6.5,0.2,13.1,0.4,19.6,0.5c11.5,0.2,23.1,0.4,34.6,0.4
		c12.9-0.1,25.7-0.6,38.3,3.3c0.4,0.1,0.9,0.2,1.3,0c11.2-4.7,22.9-0.9,34.3-1.6c10.1-0.6,20.2-0.9,30.2-1.3c0.4,0,0.9-0.1,1.3,0
		c10.7,2.6,21.4,5.4,32.2,7.7c7.7,1.6,15.7,2.2,23.5,3.8c11.6,2.5,22.8,2.3,34.4-0.5c4.6-1.1,9.9,1.3,14.7,1
		c5.2-0.4,10.5-1.9,15.5-3.5c4.6-1.5,9-3.7,13.4-5.7c6.8-3.1,13.4-7.1,20.5-9.3c17.2-5.4,34.5-10.3,52-14.8
		c10.4-2.7,21.2-4.4,31.9-5.8c6-0.8,12.2,0.1,18.3,0.1c1.9,0,3.9-0.2,5.7-0.9c8.2-3.1,16.4-6.1,24.4-9.8c4.5-2.1,8.4-5.3,13.3-0.9
		c2.5-5,5.7-8,11.8-5.8c1.9,0.7,4.4-0.2,7-0.4c0.5,0.9,1.1,2.2,1.3,2.7c2.7-1.4,5.2-2.9,7.8-4c3.2-1.4,6.6-2.5,9.8-3.8
		c5.9-2.3,11.9-4.4,17.5-7.3c4-2.1,7.3-5.5,11-8.1c1.2-0.8,2.8-1.5,4.2-1.4c5.8,0.6,11.1,0.3,15.5-4.5c1.2-1.4,3.7-1.7,5.7-2.3
		c3.4-0.9,7.3-0.6,8.6-5.2c0.1-0.5,3.5-0.7,4.9,0c4.2,1.8,7.4,2.5,11.2-1.5c1.9-2,6.7-3.4,9.2-2.4c7.6,3.1,13.8-0.5,20.5-2.3
		c1.5-0.4,3.2-0.9,4.6-0.5c2.8,0.9,4.9,1.6,5.5-2.5c0.1-0.5,3.7-0.7,5.6-0.7c2.7,0,5.3,0.4,8,0.6c1.3,0.1,2.6,0,3.9,0
		c-0.4,1.3-0.4,2.9-1.2,3.8c-7.5,8.9-15.3,17.6-22.6,26.6c-20.4,25.2-40.7,50.5-61,75.7c-6.9,8.6-7.1,9-16.7,3.7
		c-18.5-10.3-36.9-20.7-54.9-31.8c-6.2-3.8-12.2-2.5-18.4-2.3c-1.1,0-2.6,2.5-3,4.1c-2.2,7.3-3.8,14.8-6.3,22
		c-0.6,1.9-3.4,3.9-5.5,4.2c-5.2,0.8-10.6,1.1-15.8,0.8c-6.2-0.4-7.9,3.3-8.8,8.2c-0.8,4.6-1.6,9.1-2.5,14.5
		c-23.6-2.8-46.8-5.2-70-8.3c-30.7-4.1-61.3-1.8-92,0.2c-26.9,1.7-53.7,3.4-80.6,4.8c-29,1.5-58,2.7-87,3.8
		c-25.2,0.9-50.3,1.7-75.5,2.3c-7.4,0.2-14.8-0.6-22.2-0.6c-3.6,0-7.3,1.7-10.6,1c-7.8-1.4-15.4,0.5-23.2,0
		c-8.2-0.5-16.4-0.7-24.6-0.7c-8,0-16,0.4-24,0.6C53.8,484.7,53.8,473.7,53.8,462.7z M539.7,484.5c1.7-3.2,3.6-5.1,3.3-6.3
		c-0.5-1.7-2.7-3-4.2-4.5c-1.1,1.5-3.2,3-3.1,4.5C535.7,479.9,537.6,481.6,539.7,484.5z M557.3,483.4c1.2,1.5,1.3,1.6,1.4,1.6
		c0-0.4-0.1-0.8,0-1.2c1.5-7.5,1.5-7.5-5.6-7.5C555.1,479.6,556.6,482.3,557.3,483.4z"/>
	<path class="st25" d="M1199.5,331.5c-6.3,1.6-13,2.8-9.9,11.9c-36.7-3.7-72.1,2.7-107.9,3.4c3.6-0.6,7.2-0.8,10.6-1.9
		c7.7-2.3,15.8-1.8,23.5-5.5c3.8-1.9,10.5-3.7,15.5,1.2c0.9,0.9,4.1,0.6,5.7-0.2c9.4-5.2,18.7-10.5,30-10.2c1.6,0.1,4-0.4,4.6-1.5
		c4.8-8.4,12.3-3.8,17.9-2.8c4.3,0.8,7,0.2,10-2.1C1199.5,326.5,1199.5,329,1199.5,331.5z"/>
	<path class="st25" d="M1013,345.1c0.2,0.8,0.7,2.4,1.2,4c0.4-0.1,0.9-0.1,1-0.3c4.4-8,12.3-5,18.9-5.9c4.1-0.6,8.3-0.8,12.4-0.9
		c4.3-0.2,9-1.9,12.3,2.9c1.2,1.8,3,4.9,5.9,1.2c0.1-0.2,2.7,1.6,5.7,3.4c-5.9,0.9-10.2,1.2-14.2,2.3c-4.2,1.2-8.4,2.6-12,4.9
		c-11,7.1-21.9,14.5-32.6,22.1c-4.9,3.5-9.6,5.6-15.8,3.7c-2.2-0.7-5.1,1-7.5,1.5c-1.2-0.9-3-3.6-4.9-3.7c-7-0.2-14,0-21,0.8
		c-10.4,1.3-20.8,3.1-31.2,4.8c-4.3,0.7-8.5,1.8-12.8,2.3c-2.7,0.3-5.4-0.3-8.1-0.5c-0.5-0.1-1.4-0.8-1.5-0.6
		c-6.7,7.5-10.9-1-14.8-3.3c-9.2-5.4-17.5-12.6-26.1-19.1c-1.2-0.9-1.8-2.5-2.7-3.7c1.4-0.6,2.8-1.3,4.3-1.7
		c4.1-1.2,8.3-2.5,12.5-3.4c4-0.9,8.3-2,7.4,5.1c-0.2,1.4,2.9,3.2,3.9,4.2c3.8-3.4,6.4-7.3,9.8-8.4c4-1.2,8.7,0.2,14.1,0.6
		c-1.5,1.9-2,2.6-1.8,2.3c2.9,2.8,5.6,5.3,9.3,8.9c-0.8-2.8-1.1-3.9-1-3.6c2.7-2.5,4.7-4.8,7.1-6.5c2-1.4,4.4-2.1,6.6-3.1
		c0.3,2.1,0.6,4.2,1.1,7c2.5,0.5,3.7-11,8.3-2.1c3.3-3.6,5-9.1,11.7-3.3c2.6,2.3,8.6-1.6,9.7-7.5c9.4,1.3,18.5,2.6,27.7,3.9
		c0.1-0.4,0.5-2.1,0.9-3.9c0.3,0.5,0.6,1,1,1.5C1002.8,349.1,1007.6,347.2,1013,345.1z"/>
</g>
</svg>
